<?xml version="1.0" encoding="UTF-8" standalone="no"?>
<svg
   xmlns:dc="http://purl.org/dc/elements/1.1/"
   xmlns:cc="http://creativecommons.org/ns#"
   xmlns:rdf="http://www.w3.org/1999/02/22-rdf-syntax-ns#"
   xmlns:svg="http://www.w3.org/2000/svg"
   xmlns="http://www.w3.org/2000/svg"
   xmlns:sodipodi="http://sodipodi.sourceforge.net/DTD/sodipodi-0.dtd"
   xmlns:inkscape="http://www.inkscape.org/namespaces/inkscape"
   viewBox="0 0 218 80"
   enable-background="new 0 0 50 50"
   id="svg2"
   version="1.1"
   inkscape:version="0.91 r13725"
   sodipodi:docname="github.svg"
   width="218"
   height="80"
   inkscape:export-filename="/home/jisungk/GitHub/jisungk.github.io/img/github.png"
   inkscape:export-xdpi="90"
   inkscape:export-ydpi="90">
  <metadata
     id="metadata10">
    <rdf:RDF>
      <cc:Work
         rdf:about="">
        <dc:format>image/svg+xml</dc:format>
        <dc:type
           rdf:resource="http://purl.org/dc/dcmitype/StillImage" />
        <dc:title></dc:title>
      </cc:Work>
    </rdf:RDF>
  </metadata>
  <defs
     id="defs8">
    <clipPath
       clipPathUnits="userSpaceOnUse"
       id="clipPath3020">
      <path
         inkscape:connector-curvature="0"
         d="m 0,0 4802,0 0,1298.75 -4802,0 L 0,0 Z"
         id="path3022" />
    </clipPath>
  </defs>
  <sodipodi:namedview
     pagecolor="#ffffff"
     bordercolor="#666666"
     borderopacity="1"
     objecttolerance="10"
     gridtolerance="10"
     guidetolerance="10"
     inkscape:pageopacity="0"
     inkscape:pageshadow="2"
     inkscape:window-width="1920"
     inkscape:window-height="1029"
     id="namedview6"
     showgrid="false"
     inkscape:zoom="3.337544"
     inkscape:cx="79.429667"
     inkscape:cy="31.974638"
     inkscape:window-x="0"
     inkscape:window-y="25"
     inkscape:window-maximized="1"
     inkscape:current-layer="g4189"
     showguides="true"
     inkscape:guide-bbox="true" />
  <g
     id="g4189"
     transform="matrix(1.0247044,0,0,1.0247044,-15.936461,31.398819)">
    <g
       id="g4204"
       transform="matrix(0.91982699,0,0,0.91982699,21.560045,-1.2147408)">
      <path
         d="m 182.16056,-10.104207 c -11.67646,0 -21.10204,9.4255791 -21.10204,21.102044 0,9.2849 6.04925,17.162998 14.49007,19.976603 1.12544,0.140681 1.4068,-0.42204 1.4068,-0.984761 l 0,-3.657689 c -5.90858,1.266124 -7.1747,-2.813606 -7.1747,-2.813606 -0.98476,-2.391564 -2.39157,-3.094966 -2.39157,-3.094966 -1.96951,-1.266123 0.14069,-1.266123 0.14069,-1.266123 2.11021,0.140681 3.23565,2.110205 3.23565,2.110205 1.82884,3.235647 4.9238,2.250884 6.18993,1.688164 0.14068,-1.406803 0.7034,-2.250886 1.40681,-2.813607 -4.64246,-0.562721 -9.56627,-2.391565 -9.56627,-10.4103425 0,-2.2508843 0.84409,-4.2204089 2.11021,-5.6272119 -0.28137,-0.5627216 -0.98477,-2.6729255 0.14067,-5.6272118 0,0 1.82886,-0.5627217 5.76791,2.11020384 1.68815,-0.42204124 3.51699,-0.70340087 5.34584,-0.70340087 1.82884,0 3.65769,0.28135963 5.34585,0.70340087 4.07974,-2.67292554 5.76789,-2.11020384 5.76789,-2.11020384 1.12544,2.9542863 0.42204,5.0644902 0.14069,5.6272118 1.4068,1.406803 2.11021,3.3763276 2.11021,5.6272119 0,8.1594585 -4.92382,9.8476215 -9.56627,10.4103425 0.7034,0.703402 1.4068,1.969524 1.4068,3.939049 l 0,5.767892 c 0,0.562722 0.42204,1.266123 1.40681,0.984763 8.44081,-2.813607 14.34939,-10.691704 14.34939,-19.976604 0.14068,-11.5357849 -9.2849,-20.961364 -20.96137,-20.961364 z"
         id="path4"
         inkscape:connector-curvature="0"
         style="clip-rule:evenodd;fill:#6e5494;fill-opacity:1;fill-rule:evenodd" />
      <g
         style="fill:#6e5494;fill-opacity:1"
         id="g3012"
         inkscape:label="ink_ext_XXXXXX"
         transform="matrix(0.27025852,0,0,-0.27025852,18.28377,27.995961)">
        <g
           style="fill:#6e5494;fill-opacity:1"
           id="g3014"
           transform="scale(0.1,0.1)">
          <g
             style="fill:#6e5494;fill-opacity:1"
             id="g3016">
            <g
               style="fill:#6e5494;fill-opacity:1"
               id="g3018"
               clip-path="url(#clipPath3020)">
              <path
                 inkscape:connector-curvature="0"
                 d="m 924.973,742.875 -403.567,0 c -10.41,0 -18.855,-8.449 -18.855,-18.867 l 0,-197.305 c 0,-10.41 8.445,-18.887 18.855,-18.887 l 157.434,0 0,-245.136 c 0,0 -35.356,-12.051 -133.078,-12.051 -115.301,0 -276.367,42.133 -276.367,396.312 0,354.259 167.714,400.869 325.175,400.869 136.297,0 195.02,-24 232.383,-35.56 11.738,-3.6 22.598,8.09 22.598,18.51 l 45.019,190.64 c 0,4.87 -1.648,10.74 -7.207,14.73 -15.175,10.82 -107.746,62.62 -341.601,62.62 C 276.348,1298.75 0,1184.13 0,633.129 0,82.1094 316.395,0 583.02,0 c 220.757,0 354.683,94.3398 354.683,94.3398 5.52,3.0508 6.113,10.7622 6.113,14.3012 l 0,615.367 c 0,10.418 -8.433,18.867 -18.843,18.867"
                 style="fill:#6e5494;fill-opacity:1;fill-rule:nonzero;stroke:none"
                 id="path3024" />
              <path
                 inkscape:connector-curvature="0"
                 d="m 3004.75,1232.73 c 0,10.5 -8.32,18.97 -18.73,18.97 l -227.23,0 c -10.38,0 -18.82,-8.47 -18.82,-18.97 0,-0.05 0.06,-439.125 0.06,-439.125 l -354.19,0 0,439.125 c 0,10.5 -8.36,18.97 -18.75,18.97 l -227.22,0 c -10.34,0 -18.77,-8.47 -18.77,-18.97 l 0,-1189.0308 c 0,-10.4883 8.43,-19.0273 18.77,-19.0273 l 227.22,0 c 10.39,0 18.75,8.539 18.75,19.0273 l 0,508.5898 354.19,0 c 0,0 -0.62,-508.5507 -0.62,-508.5898 0,-10.4883 8.43,-19.0273 18.82,-19.0273 l 227.77,0 c 10.41,0 18.73,8.539 18.75,19.0273 l 0,1189.0308"
                 style="fill:#6e5494;fill-opacity:1;fill-rule:nonzero;stroke:none"
                 id="path3026" />
              <path
                 inkscape:connector-curvature="0"
                 d="m 1353.76,1076.7 c 0,81.82 -65.6,147.94 -146.53,147.94 -80.85,0 -146.5,-66.12 -146.5,-147.94 0,-81.735 65.65,-148.032 146.5,-148.032 80.93,0 146.53,66.297 146.53,148.032"
                 style="fill:#6e5494;fill-opacity:1;fill-rule:nonzero;stroke:none"
                 id="path3028" />
              <path
                 inkscape:connector-curvature="0"
                 d="m 1337.51,294.52 c 0,30.464 0,548.859 0,548.859 0,10.422 -8.41,18.941 -18.8,18.941 l -226.51,0 c -10.39,0 -19.69,-10.718 -19.69,-21.136 0,0 0,-660.454 0,-786.352 0,-23.1132 14.4,-29.9804 33.04,-29.9804 0,0 96.68,0 204.08,0 22.39,0 27.88,10.9882 27.88,30.3476 0,42.1524 0,207.2698 0,239.3208"
                 style="fill:#6e5494;fill-opacity:1;fill-rule:nonzero;stroke:none"
                 id="path3030" />
              <path
                 inkscape:connector-curvature="0"
                 d="m 3868.32,860.531 -225.49,0 c -10.34,0 -18.76,-8.523 -18.76,-19.011 l 0,-583.02 c 0,0 -57.28,-41.91 -138.59,-41.91 -81.3,0 -102.88,36.89 -102.88,116.5 0,79.707 0,508.43 0,508.43 0,10.488 -8.4,19.011 -18.75,19.011 l -228.85,0 c -10.33,0 -18.79,-8.523 -18.79,-19.011 0,0 0,-310.481 0,-546.93 0,-236.4611 131.79,-294.30875 313.09,-294.30875 148.73,0 268.65,82.16795 268.65,82.16795 0,0 5.71,-43.3008 8.29,-48.4375 2.59,-5.1211 9.32,-10.2929 16.59,-10.2929 l 145.59,0.6406 c 10.33,0 18.79,8.539 18.79,18.9804 l -0.07,798.1802 c 0,10.488 -8.43,19.011 -18.82,19.011"
                 style="fill:#6e5494;fill-opacity:1;fill-rule:nonzero;stroke:none"
                 id="path3032" />
              <path
                 inkscape:connector-curvature="0"
                 d="m 4395.67,217.309 c -78.21,2.382 -131.26,37.871 -131.26,37.871 l 0,376.543 c 0,0 52.34,32.078 116.55,37.812 81.2,7.274 159.44,-17.254 159.44,-210.957 0,-204.258 -35.31,-244.566 -144.73,-241.269 z m 88.94,669.933 c -128.07,0 -215.18,-57.14 -215.18,-57.14 l 0,402.628 c 0,10.5 -8.39,18.97 -18.75,18.97 l -227.87,0 c -10.36,0 -18.78,-8.47 -18.78,-18.97 l 0,-1189.0308 c 0,-10.4883 8.42,-19.0273 18.81,-19.0273 0.02,0 158.05,0 158.1,0 7.12,0 12.51,3.6679 16.49,10.0976 3.93,6.3907 9.6,54.8203 9.6,54.8203 0,0 93.18,-88.30074 269.57,-88.30074 207.08,0 325.84,105.04294 325.84,471.54694 0,366.512 -189.67,414.406 -317.83,414.406"
                 style="fill:#6e5494;fill-opacity:1;fill-rule:nonzero;stroke:none"
                 id="path3034" />
              <path
                 inkscape:connector-curvature="0"
                 d="m 1990.58,862.426 -170.45,0 c 0,0 -0.26,225.134 -0.26,225.184 0,8.52 -4.39,12.78 -14.24,12.78 l -232.28,0 c -9.03,0 -13.88,-3.97 -13.88,-12.65 l 0,-232.697 c 0,0 -116.4,-28.102 -124.27,-30.371 -7.84,-2.274 -13.61,-9.5 -13.61,-18.125 l 0,-146.227 c 0,-10.515 8.4,-18.996 18.79,-18.996 l 119.09,0 c 0,0 0,-152.941 0,-351.785 0,-261.289 183.28,-286.96088 306.96,-286.96088 56.51,0 124.11,18.15238 135.27,22.27348 6.75,2.4804 10.67,9.4687 10.67,17.0468 l 0.19,160.8636 c 0,10.488 -8.86,18.976 -18.84,18.976 -9.93,0 -35.34,-4.039 -61.5,-4.039 -83.72,0 -112.09,38.93 -112.09,89.317 0,50.351 -0.01,334.308 -0.01,334.308 l 170.46,0 c 10.39,0 18.8,8.481 18.8,18.996 l 0,183.16 c 0,10.497 -8.41,18.946 -18.8,18.946"
                 style="fill:#6e5494;fill-opacity:1;fill-rule:nonzero;stroke:none"
                 id="path3036" />
            </g>
          </g>
        </g>
      </g>
    </g>
  </g>
</svg>
